<?xml version="1.0" encoding="utf-8"?>
<!-- Generator: Adobe Illustrator 16.0.0, SVG Export Plug-In . SVG Version: 6.00 Build 0)  -->
<!DOCTYPE svg PUBLIC "-//W3C//DTD SVG 1.1 Tiny//EN" "http://www.w3.org/Graphics/SVG/1.1/DTD/svg11-tiny.dtd">
<svg version="1.1" baseProfile="tiny" id="Layer_1" xmlns="http://www.w3.org/2000/svg" xmlns:xlink="http://www.w3.org/1999/xlink"
	 x="0px" y="0px" width="200px" height="200px" viewBox="0 0 200 200" xml:space="preserve">
<g>
	<path fill-rule="evenodd" fill="#FFFFFF" d="M0.178,200.178c0-66.667,0-133.333,0-200c66.667,0,133.333,0,200,0
		c0,66.667,0,133.333,0,200C133.511,200.178,66.844,200.178,0.178,200.178z M84.421,88.894c-0.061,0.004-0.115,0.024-0.163,0.061
		c-7.345-4.269-14.689-8.537-22.034-12.806c-3.736-2.171-7.469-4.349-11.21-6.512c-1.757-1.016-3.618-1.77-5.651-1.999
		c-2.277-0.256-4.202,0.438-5.699,2.217c-0.286,0.339-0.583,0.67-0.895,0.985c-1.272,1.282-2.555,2.555-3.828,3.836
		c-0.203,0.205-0.454,0.373-0.595,0.702c0.193,0.126,0.382,0.261,0.581,0.377c1.583,0.928,3.167,1.854,4.753,2.779
		c12.733,7.426,25.466,14.853,38.2,22.277c0.228,0.133,0.434,0.313,0.707,0.357c0.027,0.065,0.054,0.13,0.081,0.195
		c-0.088,0.188-0.178,0.374-0.265,0.563c-1.613,3.492-3.226,6.985-4.841,10.478c-0.37,0.801-0.504,1.627-0.369,2.507
		c0.128,0.836,0.44,1.596,0.86,2.316c0.509,0.874,1.126,1.667,1.844,2.382c1.595,1.589,3.181,3.188,4.778,4.774
		c0.791,0.785,0.533,0.73,1.449,0.198c4.813-2.797,9.619-5.605,14.424-8.414c1.251-0.731,2.494-1.478,3.741-2.217
		c0.34,0.178,0.688,0.342,1.02,0.535c5.447,3.175,10.893,6.354,16.338,9.531c0.512,0.298,1.026,0.591,1.538,0.889
		c0.148,0.088,0.281,0.066,0.405-0.038c0.09-0.077,0.172-0.162,0.256-0.246c1.757-1.761,3.528-3.509,5.266-5.289
		c0.979-1.003,1.759-2.151,2.224-3.493c0.44-1.271,0.376-2.499-0.267-3.69c-0.154-0.287-0.298-0.579-0.434-0.875
		c-1.517-3.309-3.031-6.618-4.547-9.928c0.043-0.044,0.063-0.096,0.06-0.157c0.21-0.105,0.427-0.202,0.63-0.32
		c14.289-8.333,28.578-16.667,42.866-25.001c0.205-0.12,0.414-0.232,0.609-0.366c0.148-0.102,0.15-0.232,0.018-0.364
		c-0.524-0.523-1.052-1.042-1.567-1.574c-1.298-1.338-2.671-2.601-3.897-4.012c-0.924-1.062-2.125-1.662-3.527-1.886
		c-1.017-0.163-2.011-0.062-2.995,0.154c-1.69,0.371-3.257,1.061-4.749,1.929c-10.769,6.264-21.54,12.525-32.311,18.785
		c-0.255,0.148-0.521,0.276-0.782,0.414c-0.11-0.208-0.229-0.413-0.327-0.626c-3.15-6.867-6.297-13.736-9.449-20.602
		c-0.603-1.313-1.229-2.616-1.844-3.923c-0.009-0.114-0.018-0.228-0.025-0.342c0.15-0.254,0.308-0.505,0.451-0.763
		c4.053-7.299,8.104-14.599,12.154-21.899c0.834-1.501,1.666-3.003,2.498-4.506c0.591-1.068,1.078-2.18,1.271-3.393
		c0.253-1.583-0.084-2.984-1.276-4.146c-1.612-1.571-3.189-3.179-4.782-4.771c-0.125-0.126-0.249-0.254-0.38-0.374
		c-0.228-0.209-0.317-0.195-0.452,0.094c-0.524,1.127-1.045,2.256-1.563,3.386c-3.974,8.663-7.945,17.326-11.92,25.988
		c-0.134,0.293-0.216,0.62-0.478,0.841c-0.044-0.109-0.085-0.221-0.135-0.328c-2.49-5.434-4.98-10.869-7.472-16.303
		c-1.998-4.358-3.994-8.716-5.997-13.072c-0.12-0.26-0.188-0.557-0.43-0.747c-0.27,0.045-0.397,0.264-0.56,0.426
		c-1.637,1.63-3.263,3.271-4.904,4.896c-1.123,1.111-1.485,2.448-1.261,3.979c0.193,1.31,0.718,2.497,1.353,3.641
		c4.882,8.8,9.767,17.6,14.652,26.397c0.128,0.231,0.28,0.448,0.421,0.672c0.003,0.062,0.006,0.123,0.009,0.184
		c-0.112,0.207-0.236,0.408-0.334,0.621c-3.257,7.097-6.514,14.194-9.766,21.294C85.395,86.675,84.914,87.787,84.421,88.894z
		 M105.451,133.76c0.057-2.769-2.31-5.085-5.078-5.085c-2.618-0.001-5.087,2.143-5.083,5.093c0.004,2.814,2.271,5.07,5.09,5.08
		C103.24,138.857,105.515,136.462,105.451,133.76z M58.848,161.713c0,1.45-0.001,2.901,0.001,4.353c0,0.207-0.009,0.417,0.021,0.62
		c0.054,0.362,0.286,0.568,0.657,0.611c0.117,0.014,0.237,0.01,0.355,0.01c1.421,0,2.843,0.001,4.264-0.002
		c0.296,0,0.587-0.028,0.876-0.117c2.148-0.659,3.022-3.285,1.702-5.13c-0.086-0.12-0.182-0.234-0.283-0.342
		c-0.372-0.393-0.289-0.434-0.082-0.755c0.278-0.433,0.447-0.898,0.481-1.413c0.12-1.841-1.198-3.318-3.099-3.392
		c-1.33-0.052-2.665-0.025-3.997-0.007c-0.662,0.01-0.869,0.256-0.895,0.943c-0.006,0.178-0.001,0.355-0.001,0.533
		C58.848,158.988,58.848,160.351,58.848,161.713z M137.387,161.688c0-0.77,0-1.538-0.001-2.308c0-0.799,0.016-1.598-0.007-2.396
		c-0.017-0.592-0.318-0.849-0.909-0.838c-0.088,0.002-0.179,0.006-0.264,0.025c-0.315,0.074-0.541,0.256-0.586,0.588
		c-0.035,0.262-0.037,0.53-0.038,0.796c-0.003,1.716,0,3.432-0.003,5.147c0,0.236-0.014,0.472-0.031,0.707
		c-0.009,0.12-0.18,0.191-0.26,0.109c-0.145-0.146-0.289-0.295-0.417-0.456c-1.017-1.27-2.03-2.543-3.044-3.815
		c-0.719-0.903-1.427-1.813-2.156-2.707c-0.338-0.415-0.85-0.511-1.364-0.295c-0.4,0.169-0.422,0.53-0.429,0.895
		c-0.001,0.059,0,0.118,0,0.178c0,2.929-0.001,5.857,0.001,8.787c0,0.206-0.001,0.417,0.04,0.617
		c0.065,0.317,0.268,0.524,0.601,0.567c0.146,0.019,0.296,0.021,0.442,0.009c0.419-0.031,0.657-0.243,0.71-0.654
		c0.029-0.233,0.021-0.473,0.021-0.709c0.001-1.745,0-3.491,0.002-5.236c0-0.236,0.01-0.473,0.025-0.708
		c0.004-0.048,0.047-0.104,0.087-0.136c0.09-0.07,0.175-0.008,0.23,0.052c0.14,0.151,0.27,0.313,0.398,0.477
		c0.953,1.207,1.903,2.416,2.856,3.624c0.771,0.975,1.546,1.945,2.312,2.924c0.352,0.45,0.827,0.449,1.289,0.314
		c0.439-0.128,0.502-0.535,0.494-0.942c-0.004-0.177-0.001-0.354-0.001-0.532C137.387,164.41,137.386,163.05,137.387,161.688z
		 M174.443,161.767c0,1.449-0.004,2.899,0.001,4.35c0.004,1.026,0.162,1.188,1.178,1.189c1.952,0.004,3.905,0.002,5.858,0
		c0.178,0,0.357,0.008,0.531-0.017c0.322-0.044,0.537-0.256,0.591-0.574c0.023-0.145,0.028-0.295,0.021-0.441
		c-0.025-0.521-0.246-0.759-0.753-0.806c-0.205-0.02-0.413-0.011-0.62-0.011c-1.303-0.001-2.604,0-3.906-0.002
		c-0.236,0-0.474-0.001-0.71-0.014c-0.166-0.009-0.268-0.104-0.285-0.274c-0.01-0.088-0.018-0.177-0.018-0.266
		c-0.002-0.65-0.008-1.302,0.001-1.952c0.007-0.455,0.038-0.477,0.527-0.492c0.177-0.005,0.354-0.002,0.532-0.002
		c0.888,0,1.775,0.001,2.663-0.001c0.207,0,0.417,0.01,0.62-0.019c0.405-0.058,0.64-0.302,0.68-0.698
		c0.018-0.175,0.011-0.355-0.01-0.53c-0.039-0.336-0.258-0.531-0.568-0.602c-0.198-0.045-0.411-0.036-0.617-0.037
		c-0.977-0.003-1.953,0-2.929-0.002c-0.207,0-0.414-0.005-0.621-0.016c-0.173-0.01-0.267-0.117-0.268-0.284
		c-0.005-0.65-0.004-1.302,0.002-1.952c0.002-0.171,0.107-0.267,0.278-0.273c0.236-0.01,0.473-0.013,0.709-0.013
		c1.303-0.001,2.604,0.001,3.906-0.002c0.236,0,0.476,0.003,0.707-0.034c0.284-0.047,0.475-0.235,0.564-0.508
		c0.248-0.757-0.12-1.298-0.907-1.34c-0.118-0.006-0.236-0.002-0.354-0.002c-1.835,0-3.67,0.019-5.504-0.007
		c-0.964-0.014-1.335,0.191-1.31,1.281C174.469,158.866,174.443,160.316,174.443,161.767z M81.626,161.796c0,1.392,0,2.784,0,4.176
		c0,0.029-0.001,0.06,0,0.089c0.006,0.207-0.005,0.416,0.022,0.62c0.033,0.248,0.168,0.443,0.401,0.55
		c0.717,0.324,1.335-0.033,1.37-0.812c0.025-0.562,0.008-1.125,0.011-1.688c0.001-0.267-0.003-0.533,0.009-0.8
		c0.014-0.29,0.087-0.377,0.372-0.381c0.799-0.012,1.599-0.003,2.399-0.012c0.24-0.003,0.388,0.108,0.48,0.314
		c0.195,0.431,0.386,0.864,0.583,1.295c0.271,0.592,0.523,1.194,0.826,1.77c0.243,0.462,1.195,0.552,1.568,0.183
		c0.137-0.135,0.194-0.309,0.163-0.485c-0.035-0.2-0.104-0.399-0.187-0.587c-0.336-0.757-0.685-1.509-1.027-2.264
		c-0.319-0.703-0.324-0.71,0.232-1.245c1.264-1.214,1.419-3.035,0.741-4.333c-0.656-1.255-1.721-1.958-3.128-2.024
		c-1.3-0.062-2.605-0.03-3.908-0.012c-0.649,0.01-0.89,0.28-0.925,0.937c-0.009,0.177-0.002,0.355-0.002,0.533
		C81.626,159.012,81.626,160.403,81.626,161.796z M112.716,167.302c0.068,0,0.158,0.007,0.246-0.001
		c0.533-0.049,0.79-0.39,0.671-0.915c-0.046-0.2-0.129-0.393-0.208-0.583c-1.189-2.868-2.38-5.734-3.571-8.601
		c-0.079-0.191-0.16-0.382-0.251-0.567c-0.176-0.355-0.471-0.511-0.862-0.511c-0.4,0-0.675,0.179-0.833,0.544
		c-0.047,0.108-0.101,0.214-0.146,0.323c-1.23,2.946-2.462,5.892-3.689,8.839c-0.09,0.218-0.175,0.442-0.224,0.672
		c-0.065,0.306,0.112,0.614,0.38,0.729c0.627,0.27,1.264,0.027,1.533-0.598c0.211-0.488,0.403-0.984,0.601-1.479
		c0.099-0.248,0.265-0.356,0.542-0.354c1.213,0.01,2.426,0.014,3.639-0.003c0.357-0.005,0.533,0.153,0.651,0.466
		c0.188,0.497,0.405,0.983,0.604,1.478C111.961,167.151,112.255,167.344,112.716,167.302z M22.987,164.071
		c-0.336-0.801-0.646-1.535-0.952-2.271c-0.694-1.666-1.378-3.335-2.082-4.997c-0.247-0.581-0.707-0.776-1.29-0.604
		c-0.385,0.113-0.598,0.422-0.507,0.812c0.066,0.285,0.189,0.559,0.303,0.831c0.909,2.185,1.821,4.369,2.734,6.552
		c0.331,0.792,0.671,1.579,1.002,2.371c0.172,0.412,0.483,0.558,0.915,0.551c0.413-0.008,0.662-0.208,0.813-0.569
		c0.034-0.082,0.065-0.165,0.1-0.247c1.24-2.976,2.481-5.951,3.719-8.929c0.079-0.189,0.154-0.388,0.184-0.589
		c0.06-0.402-0.151-0.709-0.541-0.787c-0.641-0.128-1.087,0.008-1.278,0.623c-0.026,0.085-0.071,0.163-0.104,0.245
		c-0.846,2.051-1.688,4.104-2.539,6.152C23.351,163.483,23.292,163.784,22.987,164.071z M155.049,162.398
		c0,1.183-0.001,2.365,0,3.547c0,0.207-0.012,0.416,0.009,0.621c0.045,0.457,0.29,0.694,0.734,0.733
		c0.06,0.005,0.118,0.005,0.178,0.005c0.576-0.001,0.826-0.214,0.873-0.769c0.021-0.235,0.01-0.473,0.01-0.709
		c0.001-2.276,0-4.553,0.001-6.829c0.001-0.236,0.003-0.474,0.018-0.709c0.01-0.163,0.101-0.282,0.271-0.295
		c0.265-0.02,0.53-0.027,0.796-0.031c0.532-0.008,1.065,0.015,1.596-0.019c0.49-0.03,0.738-0.317,0.771-0.807
		c0.035-0.519-0.225-0.892-0.701-0.97c-0.202-0.033-0.412-0.023-0.619-0.024c-2.04-0.001-4.08-0.001-6.12,0
		c-0.147,0-0.296-0.008-0.442,0.006c-0.584,0.055-0.807,0.324-0.793,0.95c0.012,0.568,0.229,0.823,0.791,0.853
		c0.501,0.025,1.005,0.007,1.507,0.01c0.267,0.002,0.532,0.003,0.798,0.013c0.216,0.008,0.311,0.14,0.315,0.344
		c0.006,0.207,0.008,0.414,0.008,0.621C155.049,160.092,155.049,161.245,155.049,162.398z M43.954,161.789
		c0-1.421,0-2.842-0.001-4.263c0-0.236,0.003-0.474-0.016-0.71c-0.027-0.335-0.229-0.532-0.543-0.623
		c-0.233-0.066-0.468-0.066-0.701-0.003c-0.315,0.085-0.521,0.279-0.558,0.612c-0.022,0.205-0.018,0.413-0.018,0.62
		c-0.001,2.872-0.001,5.743,0,8.615c0,0.207,0.004,0.414,0.017,0.62c0.016,0.26,0.16,0.452,0.38,0.563
		c0.719,0.363,1.404-0.027,1.438-0.814c0.008-0.177,0.002-0.354,0.002-0.532C43.954,164.513,43.954,163.151,43.954,161.789z
		 M85.19,174.976c-0.002,0-0.005,0-0.008,0c0,0.503-0.003,1.006,0.002,1.509c0.001,0.146,0.021,0.293,0.051,0.436
		c0.009,0.042,0.075,0.091,0.122,0.103c0.089,0.021,0.182-0.014,0.198-0.112c0.028-0.174,0.045-0.351,0.048-0.526
		c0.011-0.65-0.005-1.303,0.027-1.952c0.034-0.685,0.49-1.115,1.129-1.121c0.55-0.006,0.971,0.301,1.105,0.838
		c0.057,0.227,0.072,0.468,0.077,0.702c0.011,0.533,0.001,1.065,0.006,1.599c0.003,0.426,0.085,0.628,0.22,0.573
		c0.306-0.124,0.166-0.405,0.176-0.615c0.024-0.473,0.005-0.947,0.009-1.421c0.001-0.206-0.002-0.416,0.028-0.619
		c0.1-0.681,0.561-1.08,1.202-1.06c0.572,0.02,1.033,0.448,1.084,1.087c0.045,0.559,0.017,1.124,0.025,1.686
		c0.004,0.266,0.014,0.531,0.029,0.796c0.006,0.102,0.104,0.167,0.179,0.152c0.066-0.013,0.163-0.111,0.164-0.172
		c0.008-0.887,0.001-1.773-0.002-2.66c0-0.028-0.009-0.058-0.016-0.087c-0.18-0.847-0.935-1.352-1.786-1.2
		c-0.365,0.064-0.663,0.237-0.913,0.507c-0.122,0.132-0.249,0.113-0.376-0.014c-0.603-0.604-1.274-0.701-2.01-0.253
		c-0.148,0.091-0.243,0.046-0.382-0.047c-0.25-0.166-0.382-0.095-0.388,0.187C85.183,173.851,85.19,174.413,85.19,174.976z
		 M47.915,174.892c0.25,0.231,0.311,0.563,0.443,0.854c0.17,0.377,0.325,0.761,0.499,1.136c0.032,0.068,0.117,0.135,0.191,0.157
		c0.141,0.041,0.209-0.076,0.268-0.179c0.044-0.076,0.075-0.16,0.109-0.242c0.426-1.038,0.853-2.077,1.276-3.117
		c0.044-0.107,0.085-0.22,0.106-0.334c0.009-0.046-0.034-0.145-0.062-0.147c-0.081-0.01-0.201-0.013-0.242,0.036
		c-0.093,0.109-0.16,0.246-0.216,0.38c-0.183,0.437-0.338,0.885-0.538,1.313c-0.207,0.445-0.27,0.963-0.646,1.326
		c-0.494-0.313-0.473-0.904-0.725-1.349c-0.232-0.408-0.288-0.823-0.026-1.259c0.077-0.128,0.227-0.304,0.046-0.475
		c-0.101-0.096-0.3,0.058-0.426,0.334c-0.085,0.188-0.163,0.38-0.24,0.572c-0.266,0.657-0.53,1.315-0.795,1.973
		c-0.054,0.135-0.106,0.273-0.329,0.281c-0.354-0.858-0.715-1.731-1.074-2.604c-0.078-0.19-0.133-0.396-0.297-0.534
		c-0.035-0.03-0.118-0.028-0.167-0.011c-0.046,0.018-0.108,0.073-0.11,0.115c-0.003,0.085,0.016,0.178,0.049,0.257
		c0.463,1.12,0.929,2.238,1.396,3.355c0.034,0.081,0.083,0.156,0.131,0.229c0.079,0.119,0.312,0.114,0.372-0.021
		c0.205-0.459,0.387-0.927,0.598-1.383C47.615,175.323,47.633,175.028,47.915,174.892z M110.658,174.902
		c0.195,0.043,0.249,0.183,0.307,0.319c0.16,0.381,0.321,0.763,0.481,1.144c0.069,0.163,0.139,0.326,0.208,0.489
		c0.05,0.119,0.145,0.202,0.267,0.188c0.073-0.009,0.159-0.083,0.202-0.151c0.077-0.124,0.129-0.265,0.186-0.401
		c0.404-0.983,0.809-1.968,1.211-2.952c0.045-0.109,0.08-0.222,0.116-0.334c0.032-0.103-0.016-0.172-0.11-0.2
		c-0.09-0.027-0.184-0.003-0.229,0.082c-0.084,0.154-0.161,0.314-0.228,0.478c-0.304,0.737-0.599,1.479-0.904,2.216
		c-0.062,0.146-0.08,0.337-0.343,0.393c-0.301-0.63-0.553-1.288-0.805-1.947c-0.058-0.149-0.01-0.287,0.044-0.427
		c0.073-0.193,0.146-0.387,0.203-0.584c0.023-0.081,0.006-0.172-0.104-0.201c-0.1-0.026-0.181,0.016-0.226,0.093
		c-0.089,0.152-0.171,0.311-0.239,0.473c-0.171,0.408-0.332,0.821-0.5,1.231c-0.187,0.458-0.376,0.915-0.56,1.361
		c-0.274-0.058-0.295-0.256-0.36-0.413c-0.33-0.79-0.652-1.585-0.984-2.374c-0.056-0.133-0.139-0.257-0.226-0.372
		c-0.025-0.033-0.111-0.038-0.164-0.028c-0.098,0.019-0.138,0.093-0.127,0.19c0.004,0.029,0.011,0.059,0.022,0.086
		c0.486,1.174,0.973,2.348,1.462,3.52c0.057,0.137,0.13,0.288,0.307,0.267c0.164-0.019,0.228-0.17,0.283-0.307
		c0.091-0.219,0.165-0.444,0.267-0.658C110.302,175.688,110.391,175.247,110.658,174.902z M154.945,173.55
		c-0.262-0.171-0.45-0.313-0.654-0.426c-0.903-0.497-1.96-0.289-2.641,0.51c-0.688,0.808-0.688,1.956,0.001,2.763
		c0.678,0.794,1.744,1.002,2.645,0.507c0.18-0.099,0.337-0.238,0.517-0.338c0.07-0.04,0.168-0.014,0.188,0.101
		c0.017,0.087,0.019,0.18,0.055,0.259s0.116,0.138,0.212,0.109c0.048-0.015,0.099-0.063,0.123-0.108
		c0.026-0.05,0.033-0.114,0.033-0.172c0.001-1.182,0-2.363-0.004-3.545c0-0.056-0.016-0.124-0.051-0.165
		c-0.032-0.039-0.099-0.066-0.15-0.065c-0.051,0-0.136,0.029-0.148,0.065C155.022,173.181,154.998,173.326,154.945,173.55z
		 M132.334,175.184c0-0.003,0-0.006,0-0.009c0.504,0,1.008,0.007,1.511-0.002c0.422-0.008,0.505-0.127,0.421-0.559
		c-0.205-1.063-1.085-1.784-2.142-1.756c-1.083,0.029-1.959,0.832-2.104,1.927c-0.131,0.993,0.563,2.015,1.566,2.301
		c0.707,0.201,1.349,0.069,1.911-0.404c0.053-0.044,0.082-0.179,0.052-0.236c-0.026-0.052-0.164-0.095-0.225-0.071
		c-0.191,0.076-0.361,0.206-0.554,0.277c-0.928,0.348-1.892-0.112-2.229-1.051c-0.086-0.237,0.02-0.409,0.28-0.414
		C131.327,175.176,131.83,175.184,132.334,175.184z M26.877,172.844c-0.115,0.024-0.291,0.05-0.46,0.098
		c-0.444,0.127-0.703,0.437-0.777,0.881c-0.078,0.466,0.153,0.805,0.541,1.03c0.202,0.117,0.433,0.187,0.653,0.271
		c0.221,0.084,0.455,0.14,0.666,0.244c0.249,0.125,0.422,0.327,0.416,0.631c-0.008,0.343-0.223,0.538-0.51,0.66
		c-0.479,0.204-1.009,0.087-1.381-0.298c-0.099-0.103-0.126-0.277-0.292-0.309c-0.041-0.008-0.112,0.038-0.137,0.079
		c-0.068,0.111-0.03,0.23,0.025,0.335c0.502,0.963,1.986,0.875,2.511,0.177c0.335-0.446,0.282-1.067-0.135-1.447
		c-0.248-0.226-0.554-0.334-0.867-0.433c-0.225-0.07-0.456-0.137-0.666-0.24c-0.287-0.141-0.415-0.388-0.379-0.642
		c0.042-0.298,0.262-0.511,0.596-0.572c0.444-0.082,0.82,0.025,1.104,0.396c0.073,0.095,0.16,0.171,0.297,0.139
		c0.104-0.025,0.093-0.237-0.013-0.392C27.795,173.054,27.41,172.87,26.877,172.844z M172.503,174.952c-0.008,0-0.015,0-0.022,0
		c0,0.385,0,0.77,0,1.155c0,0.177-0.004,0.355,0.003,0.532c0.01,0.269,0.11,0.437,0.235,0.396c0.223-0.07,0.198-0.267,0.2-0.438
		c0.006-0.474,0.002-0.947,0.004-1.422c0.001-0.236,0.007-0.474,0.009-0.71c0.007-0.861,0.944-1.396,1.646-1.03
		c0.13,0.067,0.269,0.12,0.409,0.16c0.039,0.012,0.11-0.035,0.147-0.074c0.068-0.071,0.063-0.166-0.007-0.229
		c-0.484-0.439-1.123-0.503-1.806-0.132c-0.227,0.123-0.335,0.122-0.493-0.084c-0.104-0.135-0.32-0.055-0.322,0.101
		C172.498,173.769,172.503,174.36,172.503,174.952z M67.942,175.029c0,0,0.001,0,0.002,0c0-0.413,0.007-0.826-0.002-1.239
		c-0.005-0.232,0.045-0.47-0.059-0.696c-0.032-0.069-0.068-0.103-0.138-0.069c-0.047,0.022-0.101,0.05-0.128,0.09
		c-0.03,0.046-0.047,0.109-0.047,0.165c-0.004,1.15-0.006,2.301-0.001,3.451c0,0.082,0.048,0.165,0.081,0.244
		c0.007,0.019,0.047,0.036,0.069,0.032c0.05-0.009,0.131-0.019,0.142-0.049c0.041-0.107,0.077-0.223,0.079-0.336
		C67.946,176.092,67.942,175.561,67.942,175.029z M67.737,172.022c0.144,0.002,0.223-0.082,0.224-0.203s-0.079-0.209-0.216-0.206
		c-0.102,0.002-0.155,0.075-0.167,0.162C67.56,171.898,67.602,171.997,67.737,172.022z"/>
	<path fill-rule="evenodd" fill="#6C017B" d="M116.443,88.948c0.261-0.137,0.527-0.265,0.782-0.414
		c10.771-6.26,21.542-12.521,32.311-18.785c1.492-0.868,3.059-1.558,4.749-1.929c0.984-0.216,1.979-0.317,2.995-0.154
		c1.402,0.224,2.604,0.824,3.527,1.886c1.227,1.411,2.6,2.674,3.897,4.012c0.516,0.531,1.043,1.051,1.567,1.574
		c0.133,0.132,0.131,0.263-0.018,0.364c-0.195,0.133-0.404,0.246-0.609,0.366c-14.288,8.334-28.577,16.668-42.866,25.001
		c-0.203,0.118-0.42,0.214-0.629,0.32c-0.186-0.119-0.259-0.319-0.345-0.503c-0.299-0.64-0.583-1.286-0.88-1.926
		c-0.868-1.867-1.739-3.733-2.609-5.6c-0.074-0.161-0.156-0.317-0.228-0.479c-0.534-1.21-1.028-2.439-1.653-3.608
		C116.449,89.032,116.451,88.99,116.443,88.948z"/>
	<path fill-rule="evenodd" fill="#F00680" d="M78.588,101.169c-0.273-0.045-0.48-0.225-0.708-0.358
		c-12.734-7.424-25.467-14.851-38.2-22.277c-1.585-0.925-3.17-1.851-4.753-2.779c-0.199-0.116-0.387-0.25-0.581-0.377
		c0.141-0.329,0.392-0.497,0.595-0.702c1.273-1.282,2.555-2.554,3.828-3.836c0.312-0.315,0.609-0.646,0.895-0.985
		c1.497-1.779,3.421-2.473,5.699-2.217c2.033,0.229,3.894,0.983,5.651,1.999c3.741,2.163,7.474,4.341,11.21,6.512
		c7.345,4.269,14.689,8.538,22.034,12.806c-0.09,0.279-0.155,0.569-0.275,0.834c-0.706,1.554-1.423,3.104-2.141,4.653
		c-0.496,1.068-1.009,2.129-1.498,3.201c-0.403,0.883-0.773,1.781-1.178,2.663C79.022,100.619,78.94,100.988,78.588,101.169z"/>
	<path fill-rule="evenodd" fill="#F00680" d="M95.99,63.475c-0.141-0.224-0.293-0.441-0.421-0.672
		c-4.886-8.798-9.77-17.597-14.652-26.397c-0.635-1.144-1.16-2.332-1.353-3.641c-0.225-1.531,0.138-2.869,1.261-3.979
		c1.642-1.625,3.268-3.266,4.904-4.896c0.163-0.163,0.291-0.381,0.56-0.426c0.242,0.19,0.31,0.487,0.43,0.747
		c2.003,4.355,3.999,8.714,5.997,13.072c2.491,5.434,4.981,10.869,7.472,16.303c0.049,0.107,0.09,0.219,0.134,0.328
		c0,0.158,0.001,0.317,0.001,0.475c-0.219,0.086-0.302,0.289-0.359,0.482c-0.126,0.431-0.352,0.813-0.54,1.213
		c-0.463,0.99-0.935,1.976-1.384,2.973C97.373,60.536,96.744,62.034,95.99,63.475z"/>
	<path fill-rule="evenodd" fill="#6C017B" d="M100.323,54.387c-0.001-0.158-0.001-0.317-0.002-0.475
		c0.263-0.221,0.344-0.547,0.479-0.84c3.975-8.662,7.946-17.325,11.92-25.988c0.518-1.13,1.038-2.259,1.563-3.386
		c0.135-0.29,0.225-0.303,0.452-0.094c0.131,0.12,0.255,0.248,0.38,0.374c1.593,1.592,3.17,3.2,4.782,4.771
		c1.192,1.162,1.529,2.563,1.276,4.146c-0.193,1.212-0.681,2.325-1.271,3.393c-0.832,1.502-1.664,3.004-2.498,4.506
		c-4.051,7.3-8.102,14.6-12.154,21.899c-0.144,0.258-0.301,0.509-0.451,0.763c-0.089-0.117-0.212-0.221-0.261-0.353
		c-0.321-0.861-0.774-1.66-1.154-2.493c-0.784-1.72-1.555-3.445-2.334-5.167c-0.122-0.269-0.267-0.528-0.395-0.795
		C100.585,54.503,100.483,54.411,100.323,54.387z"/>
	<path fill-rule="evenodd" fill="#6C017B" d="M100.291,113.95c-1.247,0.739-2.49,1.485-3.741,2.217
		c-4.806,2.809-9.612,5.617-14.424,8.414c-0.916,0.532-0.658,0.587-1.449-0.198c-1.597-1.587-3.184-3.186-4.778-4.774
		c-0.718-0.715-1.335-1.508-1.844-2.382c-0.419-0.721-0.731-1.48-0.86-2.316c-0.135-0.88-0.001-1.706,0.369-2.507
		c1.615-3.492,3.228-6.985,4.841-10.478c0.087-0.188,0.176-0.375,0.265-0.563c0.68,0.273,1.296,0.667,1.931,1.025
		c0.637,0.359,1.229,0.797,1.911,1.074c0,0.051,0.007,0.101,0.022,0.148c-0.154,0.287-0.307,0.574-0.464,0.859
		c-1.119,2.02-2.239,4.038-3.357,6.059c-0.063,0.115-0.196,0.238,0.004,0.392c1.347-0.781,2.702-1.569,4.06-2.354
		c1.358-0.783,2.72-1.563,4.08-2.343c0.588,0.053,1.021,0.439,1.503,0.713c0.998,0.566,1.987,1.147,2.978,1.726
		c1.144,0.667,2.285,1.338,3.428,2.007c1.295,0.758,2.583,1.528,3.889,2.266c0.533,0.301,1.03,0.679,1.635,0.843
		C100.281,113.836,100.282,113.894,100.291,113.95z"/>
	<path fill-rule="evenodd" fill="#F00680" d="M100.291,113.95c-0.009-0.057-0.01-0.114-0.002-0.172
		c0.213,0.021,0.41-0.027,0.595-0.135c0.536-0.313,1.073-0.622,1.607-0.936c1.172-0.688,2.34-1.378,3.513-2.063
		c0.969-0.565,1.941-1.125,2.911-1.688c1.251-0.726,2.5-1.455,3.754-2.178c0.331-0.191,0.672-0.366,0.931-0.658
		c0.092,0.001,0.185,0.003,0.277,0.004c0.117,0.088,0.228,0.187,0.354,0.26c2.471,1.439,4.942,2.875,7.414,4.312
		c0.102,0.059,0.209,0.108,0.311,0.167c0.067,0.038,0.122,0.034,0.146-0.033c0.019-0.05,0.034-0.119,0.014-0.161
		c-0.104-0.211-0.22-0.417-0.334-0.623c-1.183-2.141-2.366-4.281-3.549-6.422c0.065-0.139,0.169-0.242,0.306-0.31
		c0.744-0.365,1.427-0.839,2.15-1.236c0.461-0.254,0.885-0.588,1.403-0.732c1.516,3.31,3.03,6.619,4.547,9.928
		c0.136,0.296,0.279,0.588,0.434,0.875c0.643,1.191,0.707,2.419,0.267,3.69c-0.465,1.342-1.244,2.49-2.224,3.493
		c-1.737,1.78-3.509,3.528-5.266,5.289c-0.084,0.084-0.166,0.169-0.256,0.246c-0.124,0.104-0.257,0.126-0.405,0.038
		c-0.512-0.298-1.026-0.591-1.538-0.889c-5.445-3.178-10.891-6.356-16.338-9.531C100.979,114.292,100.631,114.128,100.291,113.95z"
		/>
	<path fill-rule="evenodd" fill="#F00680" d="M116.443,88.948c0.008,0.042,0.006,0.084-0.008,0.125
		c-0.607,0.211-1.133,0.579-1.688,0.893c-1.038,0.588-2.034,1.253-3.122,1.753c-1.321-2.374-2.646-4.746-3.965-7.121
		c-2.266-4.079-4.527-8.16-6.795-12.238c-0.155-0.279-0.252-0.606-0.56-0.778c-0.002-0.155-0.003-0.311-0.005-0.466
		c0.278-0.005,0.403-0.194,0.521-0.411c0.729-1.344,1.458-2.688,2.198-4.026c0.484-0.874,0.989-1.737,1.479-2.608
		c0.077-0.137,0.175-0.232,0.323-0.276c0.616,1.308,1.242,2.61,1.845,3.923c3.152,6.866,6.299,13.735,9.449,20.602
		C116.214,88.535,116.333,88.739,116.443,88.948z"/>
	<path fill-rule="evenodd" fill="#6C017B" d="M100.301,71.117c0.002,0.155,0.003,0.311,0.005,0.466
		c-0.055,0.105-0.109,0.21-0.166,0.313c-3.526,6.358-7.053,12.716-10.578,19.074c-0.157,0.283-0.358,0.546-0.399,0.882
		c-0.027-0.019-0.056-0.028-0.089-0.028c-0.027-0.051-0.04-0.126-0.082-0.151c-1.197-0.685-2.401-1.358-3.593-2.051
		c-0.351-0.204-0.743-0.365-0.978-0.729c0.492-1.107,0.974-2.219,1.478-3.32c3.252-7.1,6.508-14.197,9.766-21.294
		c0.098-0.213,0.222-0.414,0.334-0.621c0.142,0.222,0.297,0.438,0.424,0.668c0.737,1.338,1.467,2.68,2.201,4.019
		c0.297,0.541,0.58,1.09,0.904,1.614C99.772,70.353,99.935,70.805,100.301,71.117z"/>
	<path fill-rule="evenodd" fill="#EA062B" d="M105.451,133.76c0.063,2.702-2.211,5.098-5.071,5.088
		c-2.819-0.01-5.086-2.266-5.09-5.08c-0.004-2.95,2.465-5.094,5.083-5.093C103.142,128.675,105.508,130.991,105.451,133.76z"/>
	<path fill-rule="evenodd" fill="#B50074" d="M100.301,71.117c-0.367-0.312-0.529-0.764-0.773-1.158
		c-0.324-0.523-0.607-1.073-0.904-1.614c-0.734-1.339-1.464-2.681-2.201-4.019c-0.127-0.23-0.282-0.446-0.424-0.668
		c-0.003-0.061-0.006-0.122-0.009-0.184c0.754-1.44,1.383-2.939,2.05-4.42c0.449-0.997,0.92-1.983,1.384-2.973
		c0.188-0.401,0.414-0.783,0.54-1.213c0.057-0.193,0.14-0.396,0.359-0.482c0.16,0.024,0.262,0.116,0.332,0.26
		c0.128,0.267,0.272,0.526,0.395,0.795c0.779,1.721,1.55,3.447,2.334,5.167c0.38,0.833,0.833,1.632,1.154,2.493
		c0.049,0.132,0.172,0.236,0.261,0.353c0.008,0.114,0.017,0.229,0.025,0.342c-0.149,0.043-0.247,0.138-0.324,0.275
		c-0.489,0.871-0.994,1.734-1.479,2.608c-0.74,1.338-1.47,2.682-2.198,4.026C100.705,70.923,100.58,71.112,100.301,71.117z"/>
	<path fill-rule="evenodd" fill="#B50074" d="M111.626,91.719c1.088-0.5,2.084-1.166,3.122-1.753
		c0.555-0.313,1.08-0.681,1.688-0.893c0.625,1.169,1.119,2.397,1.653,3.608c0.071,0.162,0.153,0.318,0.228,0.479
		c0.87,1.866,1.741,3.732,2.609,5.6c0.297,0.64,0.581,1.286,0.88,1.926c0.086,0.184,0.159,0.384,0.345,0.503
		c0.003,0.062-0.018,0.113-0.061,0.157c-0.519,0.145-0.942,0.479-1.403,0.732c-0.724,0.397-1.406,0.871-2.15,1.236
		c-0.137,0.067-0.24,0.171-0.306,0.31c-0.059,0.002-0.115-0.007-0.171-0.025c0.005-0.245-0.085-0.461-0.201-0.67
		c-0.575-1.03-1.15-2.061-1.723-3.092c-0.33-0.593-0.653-1.189-0.983-1.782c-0.818-1.468-1.625-2.943-2.466-4.398
		c-0.352-0.608-0.613-1.274-1.104-1.798C111.567,91.803,111.582,91.756,111.626,91.719z"/>
	<path fill-rule="evenodd" fill="#B50074" d="M84.421,88.894c0.235,0.364,0.627,0.525,0.978,0.729
		c1.192,0.693,2.396,1.366,3.593,2.051c0.042,0.024,0.055,0.1,0.082,0.151c-0.159,0.283-0.32,0.563-0.476,0.848
		c-0.737,1.349-1.468,2.702-2.209,4.048c-0.912,1.657-1.832,3.311-2.749,4.965c-0.287,0.517-0.572,1.034-0.871,1.544
		c-0.056,0.096-0.171,0.157-0.259,0.233c-0.683-0.277-1.274-0.715-1.911-1.074c-0.635-0.358-1.251-0.752-1.931-1.025
		c-0.027-0.065-0.054-0.13-0.081-0.195c0.352-0.18,0.434-0.549,0.578-0.862c0.405-0.882,0.775-1.78,1.178-2.663
		c0.489-1.072,1.002-2.132,1.498-3.201c0.718-1.549,1.435-3.099,2.141-4.653c0.121-0.265,0.185-0.556,0.275-0.834
		C84.307,88.918,84.361,88.897,84.421,88.894z"/>
	<path fill-rule="evenodd" fill="#6B6B6B" d="M58.848,161.713c0-1.362,0-2.725,0-4.087c0-0.178-0.005-0.355,0.001-0.533
		c0.026-0.688,0.233-0.934,0.895-0.943c1.333-0.019,2.667-0.045,3.997,0.007c1.901,0.073,3.219,1.551,3.099,3.392
		c-0.034,0.515-0.203,0.98-0.481,1.413c-0.207,0.321-0.29,0.362,0.082,0.755c0.102,0.107,0.197,0.222,0.283,0.342
		c1.32,1.845,0.446,4.471-1.702,5.13c-0.289,0.089-0.58,0.117-0.876,0.117c-1.421,0.003-2.843,0.002-4.264,0.002
		c-0.118,0-0.238,0.004-0.355-0.01c-0.371-0.043-0.603-0.249-0.657-0.611c-0.031-0.203-0.021-0.413-0.021-0.62
		C58.847,164.614,58.848,163.163,58.848,161.713z M62.616,162.496c0,0.001,0,0.002,0,0.003c-0.531,0-1.062-0.002-1.593,0.002
		c-0.213,0.001-0.326,0.126-0.327,0.331c-0.006,0.737-0.011,1.475,0,2.212c0.005,0.334,0.095,0.422,0.425,0.425
		c0.974,0.009,1.948,0.024,2.92-0.002c0.86-0.022,1.439-0.647,1.43-1.477c-0.009-0.82-0.608-1.452-1.439-1.49
		C63.561,162.478,63.087,162.496,62.616,162.496z M62.426,158.035c0-0.002,0-0.004,0-0.006c-0.414,0-0.829-0.007-1.242,0.002
		c-0.426,0.009-0.484,0.058-0.491,0.44c-0.011,0.562-0.012,1.124-0.001,1.686c0.009,0.425,0.082,0.492,0.542,0.498
		c0.739,0.009,1.479,0.009,2.218-0.002c0.204-0.003,0.415-0.03,0.609-0.092c0.602-0.189,0.989-0.765,0.933-1.352
		c-0.062-0.647-0.553-1.129-1.236-1.17C63.314,158.013,62.869,158.035,62.426,158.035z"/>
	<path fill-rule="evenodd" fill="#6B6B6B" d="M137.386,161.688c0,1.361,0.001,2.722,0,4.083c0,0.178-0.003,0.355,0.001,0.532
		c0.008,0.407-0.055,0.814-0.494,0.942c-0.462,0.135-0.938,0.136-1.289-0.314c-0.766-0.979-1.541-1.949-2.312-2.924
		c-0.953-1.208-1.903-2.417-2.856-3.624c-0.129-0.163-0.259-0.325-0.398-0.477c-0.056-0.06-0.141-0.122-0.23-0.052
		c-0.04,0.032-0.083,0.088-0.087,0.136c-0.016,0.235-0.025,0.472-0.025,0.708c-0.002,1.745-0.001,3.491-0.002,5.236
		c0,0.236,0.009,0.476-0.021,0.709c-0.053,0.411-0.291,0.623-0.71,0.654c-0.146,0.012-0.297,0.01-0.442-0.009
		c-0.333-0.043-0.535-0.25-0.601-0.567c-0.041-0.2-0.04-0.411-0.04-0.617c-0.002-2.93-0.001-5.858-0.001-8.787
		c0-0.06-0.001-0.119,0-0.178c0.007-0.364,0.028-0.726,0.429-0.895c0.515-0.216,1.026-0.12,1.364,0.295
		c0.729,0.894,1.438,1.804,2.156,2.707c1.014,1.272,2.027,2.546,3.044,3.815c0.128,0.161,0.272,0.31,0.417,0.456
		c0.08,0.082,0.251,0.011,0.26-0.109c0.018-0.235,0.031-0.471,0.031-0.707c0.003-1.716,0-3.432,0.003-5.147
		c0.001-0.266,0.003-0.534,0.038-0.796c0.045-0.332,0.271-0.514,0.586-0.588c0.085-0.02,0.176-0.023,0.264-0.025
		c0.591-0.011,0.893,0.246,0.909,0.838c0.022,0.799,0.007,1.598,0.007,2.396C137.387,160.15,137.387,160.919,137.386,161.688z"/>
	<path fill-rule="evenodd" fill="#6B6B6B" d="M174.443,161.767c0-1.45,0.025-2.9-0.009-4.35c-0.025-1.09,0.346-1.295,1.31-1.281
		c1.834,0.025,3.669,0.007,5.504,0.007c0.118,0,0.236-0.004,0.354,0.002c0.787,0.042,1.155,0.583,0.907,1.34
		c-0.09,0.272-0.28,0.461-0.564,0.508c-0.231,0.037-0.471,0.034-0.707,0.034c-1.302,0.003-2.604,0.001-3.906,0.002
		c-0.236,0-0.473,0.003-0.709,0.013c-0.171,0.007-0.276,0.103-0.278,0.273c-0.006,0.65-0.007,1.302-0.002,1.952
		c0.001,0.167,0.095,0.274,0.268,0.284c0.207,0.011,0.414,0.016,0.621,0.016c0.976,0.002,1.952-0.001,2.929,0.002
		c0.206,0.001,0.419-0.008,0.617,0.037c0.311,0.07,0.529,0.266,0.568,0.602c0.021,0.175,0.027,0.355,0.01,0.53
		c-0.04,0.396-0.274,0.641-0.68,0.698c-0.203,0.028-0.413,0.019-0.62,0.019c-0.888,0.002-1.775,0.001-2.663,0.001
		c-0.178,0-0.355-0.003-0.532,0.002c-0.489,0.016-0.521,0.037-0.527,0.492c-0.009,0.65-0.003,1.302-0.001,1.952
		c0,0.089,0.008,0.178,0.018,0.266c0.018,0.17,0.119,0.266,0.285,0.274c0.236,0.013,0.474,0.014,0.71,0.014
		c1.302,0.002,2.604,0.001,3.906,0.002c0.207,0,0.415-0.009,0.62,0.011c0.507,0.047,0.728,0.285,0.753,0.806
		c0.007,0.146,0.002,0.297-0.021,0.441c-0.054,0.318-0.269,0.53-0.591,0.574c-0.174,0.024-0.354,0.017-0.531,0.017
		c-1.953,0.002-3.906,0.004-5.858,0c-1.016-0.002-1.174-0.163-1.178-1.189C174.439,164.666,174.443,163.216,174.443,161.767z"/>
	<path fill-rule="evenodd" fill="#6B6B6B" d="M81.626,161.796c0-1.393,0-2.784,0-4.176c0-0.178-0.007-0.356,0.002-0.533
		c0.035-0.656,0.275-0.927,0.925-0.937c1.303-0.019,2.608-0.05,3.908,0.012c1.408,0.066,2.473,0.77,3.128,2.024
		c0.678,1.298,0.523,3.119-0.741,4.333c-0.556,0.535-0.551,0.542-0.232,1.245c0.342,0.755,0.691,1.507,1.027,2.264
		c0.083,0.188,0.151,0.387,0.187,0.587c0.031,0.177-0.026,0.351-0.163,0.485c-0.373,0.369-1.325,0.279-1.568-0.183
		c-0.303-0.575-0.556-1.178-0.826-1.77c-0.197-0.431-0.388-0.864-0.583-1.295c-0.093-0.206-0.24-0.317-0.48-0.314
		c-0.8,0.009-1.6,0-2.399,0.012c-0.284,0.004-0.358,0.091-0.372,0.381c-0.013,0.267-0.008,0.533-0.009,0.8
		c-0.002,0.563,0.014,1.126-0.011,1.688c-0.035,0.778-0.653,1.136-1.37,0.812c-0.233-0.106-0.369-0.302-0.401-0.55
		c-0.027-0.204-0.017-0.413-0.022-0.62c-0.001-0.029,0-0.06,0-0.089C81.626,164.58,81.626,163.188,81.626,161.796z M83.418,159.833
		c0,0.533-0.004,1.066,0.002,1.599c0.002,0.16,0.076,0.305,0.252,0.306c0.977,0.005,1.963,0.085,2.927-0.026
		c1.349-0.155,2.014-1.696,1.308-2.86c-0.37-0.61-0.946-0.881-1.632-0.921c-0.473-0.027-0.948-0.01-1.421-0.01
		c-0.355,0-0.711-0.006-1.066,0.01c-0.274,0.013-0.362,0.104-0.368,0.393C83.41,158.825,83.417,159.329,83.418,159.833z"/>
	<path fill-rule="evenodd" fill="#6B6B6B" d="M112.716,167.302c-0.461,0.042-0.755-0.15-0.919-0.56
		c-0.198-0.494-0.415-0.98-0.604-1.478c-0.118-0.313-0.294-0.471-0.651-0.466c-1.213,0.017-2.426,0.013-3.639,0.003
		c-0.277-0.003-0.443,0.105-0.542,0.354c-0.197,0.494-0.39,0.99-0.601,1.479c-0.27,0.625-0.906,0.867-1.533,0.598
		c-0.268-0.115-0.445-0.424-0.38-0.729c0.049-0.229,0.134-0.454,0.224-0.672c1.228-2.947,2.459-5.893,3.689-8.839
		c0.046-0.109,0.1-0.215,0.146-0.323c0.158-0.365,0.433-0.544,0.833-0.544c0.392,0,0.687,0.155,0.862,0.511
		c0.091,0.186,0.172,0.376,0.251,0.567c1.191,2.866,2.382,5.732,3.571,8.601c0.079,0.19,0.162,0.383,0.208,0.583
		c0.119,0.525-0.138,0.866-0.671,0.915C112.874,167.309,112.784,167.302,112.716,167.302z M110.174,162.925
		c-0.437-1.407-1.104-2.952-1.479-3.418c-0.37,0.885-0.732,1.748-1.092,2.611c-0.068,0.163-0.13,0.328-0.192,0.492
		c-0.01,0.027-0.012,0.058-0.016,0.087c-0.019,0.137,0.045,0.244,0.175,0.248C108.414,162.975,109.26,163.005,110.174,162.925z"/>
	<path fill-rule="evenodd" fill="#6B6B6B" d="M22.987,164.071c0.306-0.287,0.364-0.588,0.476-0.856
		c0.851-2.049,1.693-4.102,2.539-6.152c0.034-0.082,0.078-0.16,0.104-0.245c0.191-0.615,0.638-0.751,1.278-0.623
		c0.389,0.078,0.601,0.385,0.541,0.787c-0.03,0.201-0.105,0.399-0.184,0.589c-1.237,2.978-2.479,5.953-3.719,8.929
		c-0.034,0.082-0.065,0.165-0.1,0.247c-0.15,0.361-0.4,0.562-0.813,0.569c-0.432,0.007-0.743-0.139-0.915-0.551
		c-0.331-0.792-0.671-1.579-1.002-2.371c-0.913-2.183-1.825-4.367-2.734-6.552c-0.113-0.272-0.236-0.546-0.303-0.831
		c-0.091-0.39,0.122-0.698,0.507-0.812c0.583-0.173,1.043,0.022,1.29,0.604c0.704,1.662,1.388,3.331,2.082,4.997
		C22.341,162.536,22.651,163.271,22.987,164.071z"/>
	<path fill-rule="evenodd" fill="#6B6B6B" d="M155.049,162.398c0-1.153,0-2.307-0.001-3.459c0-0.207-0.002-0.414-0.008-0.621
		c-0.005-0.204-0.1-0.336-0.315-0.344c-0.266-0.01-0.531-0.011-0.798-0.013c-0.502-0.003-1.006,0.016-1.507-0.01
		c-0.562-0.029-0.779-0.284-0.791-0.853c-0.014-0.626,0.209-0.896,0.793-0.95c0.146-0.014,0.295-0.006,0.442-0.006
		c2.04-0.001,4.08-0.001,6.12,0c0.207,0.001,0.417-0.009,0.619,0.024c0.477,0.078,0.736,0.451,0.701,0.97
		c-0.032,0.489-0.28,0.776-0.771,0.807c-0.53,0.033-1.063,0.011-1.596,0.019c-0.266,0.004-0.531,0.012-0.796,0.031
		c-0.171,0.013-0.262,0.132-0.271,0.295c-0.015,0.235-0.017,0.473-0.018,0.709c-0.001,2.276,0,4.553-0.001,6.829
		c0,0.236,0.011,0.474-0.01,0.709c-0.047,0.555-0.297,0.768-0.873,0.769c-0.06,0-0.118,0-0.178-0.005
		c-0.444-0.039-0.689-0.276-0.734-0.733c-0.021-0.205-0.009-0.414-0.009-0.621C155.048,164.764,155.049,163.581,155.049,162.398z"/>
	<path fill-rule="evenodd" fill="#6B6B6B" d="M43.954,161.789c0,1.362,0,2.724,0,4.086c0,0.178,0.005,0.355-0.002,0.532
		c-0.034,0.787-0.719,1.178-1.438,0.814c-0.221-0.111-0.364-0.304-0.38-0.563c-0.013-0.206-0.017-0.413-0.017-0.62
		c-0.001-2.872-0.001-5.743,0-8.615c0-0.207-0.004-0.415,0.018-0.62c0.037-0.333,0.243-0.527,0.558-0.612
		c0.233-0.063,0.468-0.063,0.701,0.003c0.314,0.091,0.517,0.288,0.543,0.623c0.019,0.236,0.016,0.474,0.016,0.71
		C43.955,158.947,43.954,160.368,43.954,161.789z"/>
	<path fill-rule="evenodd" fill="#6B6B6B" d="M85.19,174.976c0-0.563-0.007-1.125,0.003-1.687c0.005-0.281,0.138-0.353,0.388-0.187
		c0.139,0.093,0.234,0.138,0.382,0.047c0.735-0.448,1.407-0.351,2.01,0.253c0.127,0.127,0.254,0.146,0.376,0.014
		c0.25-0.27,0.547-0.442,0.913-0.507c0.851-0.151,1.606,0.354,1.786,1.2c0.006,0.029,0.016,0.059,0.016,0.087
		c0.004,0.887,0.01,1.773,0.002,2.66c0,0.061-0.098,0.159-0.164,0.172c-0.076,0.015-0.173-0.051-0.179-0.152
		c-0.016-0.265-0.025-0.53-0.029-0.796c-0.008-0.562,0.02-1.127-0.025-1.686c-0.051-0.639-0.513-1.067-1.084-1.087
		c-0.642-0.021-1.103,0.379-1.202,1.06c-0.03,0.203-0.026,0.413-0.028,0.619c-0.004,0.474,0.015,0.948-0.009,1.421
		c-0.011,0.21,0.129,0.491-0.176,0.615c-0.135,0.055-0.217-0.147-0.22-0.573c-0.004-0.533,0.005-1.065-0.006-1.599
		c-0.005-0.234-0.02-0.476-0.077-0.702c-0.134-0.537-0.556-0.844-1.105-0.838c-0.64,0.006-1.095,0.437-1.129,1.121
		c-0.032,0.649-0.016,1.302-0.027,1.952c-0.003,0.176-0.02,0.353-0.048,0.526c-0.016,0.099-0.108,0.133-0.198,0.112
		c-0.047-0.012-0.113-0.061-0.122-0.103c-0.03-0.143-0.05-0.29-0.051-0.436c-0.006-0.503-0.002-1.006-0.002-1.509
		C85.185,174.976,85.188,174.976,85.19,174.976z"/>
	<path fill-rule="evenodd" fill="#6B6B6B" d="M47.915,174.892c-0.281,0.137-0.3,0.432-0.407,0.665
		c-0.21,0.456-0.393,0.924-0.598,1.383c-0.06,0.135-0.292,0.14-0.372,0.021c-0.048-0.073-0.098-0.148-0.131-0.229
		c-0.468-1.117-0.934-2.235-1.396-3.355c-0.033-0.079-0.052-0.172-0.049-0.257c0.001-0.042,0.063-0.098,0.11-0.115
		c0.049-0.018,0.132-0.02,0.167,0.011c0.164,0.139,0.219,0.344,0.297,0.534c0.359,0.873,0.72,1.746,1.074,2.604
		c0.223-0.008,0.275-0.146,0.329-0.281c0.265-0.657,0.529-1.315,0.795-1.973c0.077-0.192,0.155-0.384,0.24-0.572
		c0.126-0.276,0.325-0.43,0.426-0.334c0.18,0.171,0.03,0.347-0.046,0.475c-0.262,0.436-0.206,0.851,0.026,1.259
		c0.252,0.444,0.231,1.035,0.725,1.349c0.376-0.363,0.438-0.881,0.646-1.326c0.199-0.428,0.355-0.876,0.538-1.313
		c0.056-0.134,0.123-0.271,0.216-0.38c0.041-0.049,0.161-0.046,0.242-0.036c0.027,0.003,0.07,0.102,0.062,0.147
		c-0.021,0.114-0.062,0.227-0.106,0.334c-0.424,1.04-0.85,2.079-1.276,3.117c-0.034,0.082-0.065,0.166-0.109,0.242
		c-0.059,0.103-0.127,0.22-0.268,0.179c-0.074-0.022-0.159-0.089-0.191-0.157c-0.174-0.375-0.329-0.759-0.499-1.136
		C48.226,175.454,48.164,175.123,47.915,174.892z"/>
	<path fill-rule="evenodd" fill="#6B6B6B" d="M110.658,174.902c-0.268,0.345-0.356,0.785-0.543,1.178
		c-0.102,0.214-0.176,0.439-0.267,0.658c-0.056,0.137-0.119,0.288-0.283,0.307c-0.177,0.021-0.25-0.13-0.307-0.267
		c-0.489-1.172-0.976-2.346-1.462-3.52c-0.012-0.027-0.019-0.057-0.022-0.086c-0.011-0.098,0.029-0.172,0.127-0.19
		c0.053-0.01,0.139-0.005,0.164,0.028c0.087,0.115,0.17,0.239,0.226,0.372c0.332,0.789,0.654,1.584,0.984,2.374
		c0.065,0.157,0.086,0.355,0.36,0.413c0.184-0.446,0.373-0.903,0.56-1.361c0.168-0.41,0.329-0.823,0.5-1.231
		c0.068-0.162,0.15-0.32,0.239-0.473c0.045-0.077,0.126-0.119,0.226-0.093c0.109,0.029,0.127,0.12,0.104,0.201
		c-0.058,0.197-0.13,0.391-0.203,0.584c-0.054,0.14-0.102,0.277-0.044,0.427c0.252,0.659,0.504,1.317,0.805,1.947
		c0.263-0.056,0.281-0.246,0.343-0.393c0.306-0.737,0.601-1.479,0.904-2.216c0.066-0.163,0.144-0.323,0.228-0.478
		c0.046-0.085,0.14-0.109,0.229-0.082c0.095,0.028,0.143,0.098,0.11,0.2c-0.036,0.112-0.071,0.225-0.116,0.334
		c-0.402,0.984-0.807,1.969-1.211,2.952c-0.057,0.137-0.108,0.277-0.186,0.401c-0.043,0.068-0.129,0.143-0.202,0.151
		c-0.122,0.015-0.217-0.068-0.267-0.188c-0.069-0.163-0.139-0.326-0.208-0.489c-0.16-0.381-0.321-0.763-0.481-1.144
		C110.907,175.085,110.854,174.945,110.658,174.902z"/>
	<path fill-rule="evenodd" fill="#6B6B6B" d="M154.945,173.55c0.053-0.224,0.077-0.369,0.125-0.506
		c0.013-0.036,0.098-0.065,0.148-0.065c0.052-0.001,0.118,0.026,0.15,0.065c0.035,0.041,0.051,0.109,0.051,0.165
		c0.004,1.182,0.005,2.363,0.004,3.545c0,0.058-0.007,0.122-0.033,0.172c-0.024,0.046-0.075,0.094-0.123,0.108
		c-0.096,0.028-0.176-0.03-0.212-0.109s-0.038-0.172-0.055-0.259c-0.021-0.114-0.118-0.141-0.188-0.101
		c-0.18,0.1-0.337,0.239-0.517,0.338c-0.9,0.495-1.967,0.287-2.645-0.507c-0.688-0.807-0.688-1.955-0.001-2.763
		c0.681-0.799,1.737-1.007,2.641-0.51C154.495,173.236,154.684,173.379,154.945,173.55z M153.244,176.756
		c0.97,0.016,1.764-0.743,1.782-1.704c0.018-0.952-0.768-1.761-1.72-1.771c-0.92-0.011-1.689,0.732-1.722,1.664
		C151.55,175.929,152.293,176.74,153.244,176.756z"/>
	<path fill-rule="evenodd" fill="#6B6B6B" d="M132.334,175.184c-0.504,0-1.007-0.008-1.511,0.003
		c-0.261,0.005-0.366,0.177-0.28,0.414c0.337,0.938,1.301,1.398,2.229,1.051c0.192-0.071,0.362-0.201,0.554-0.277
		c0.061-0.023,0.198,0.02,0.225,0.071c0.03,0.058,0.001,0.192-0.052,0.236c-0.563,0.474-1.204,0.605-1.911,0.404
		c-1.004-0.286-1.697-1.308-1.566-2.301c0.145-1.095,1.021-1.897,2.104-1.927c1.057-0.028,1.937,0.692,2.142,1.756
		c0.084,0.432,0.001,0.551-0.421,0.559c-0.503,0.009-1.007,0.002-1.511,0.002C132.334,175.178,132.334,175.181,132.334,175.184z
		 M132.145,174.749c0,0.001,0,0.002,0,0.003c0.472,0,0.944,0.007,1.417-0.002c0.266-0.006,0.341-0.16,0.22-0.417
		c-0.331-0.704-0.941-1.084-1.695-1.044c-0.765,0.039-1.248,0.467-1.539,1.145c-0.066,0.154,0.021,0.312,0.181,0.313
		C131.2,174.753,131.672,174.749,132.145,174.749z"/>
	<path fill-rule="evenodd" fill="#6B6B6B" d="M26.877,172.844c0.533,0.026,0.918,0.21,1.191,0.607
		c0.106,0.154,0.117,0.366,0.013,0.392c-0.137,0.032-0.224-0.044-0.297-0.139c-0.284-0.37-0.66-0.478-1.104-0.396
		c-0.334,0.062-0.554,0.274-0.596,0.572c-0.036,0.254,0.092,0.501,0.379,0.642c0.21,0.104,0.441,0.17,0.666,0.24
		c0.313,0.099,0.62,0.207,0.867,0.433c0.417,0.38,0.47,1.001,0.135,1.447c-0.525,0.698-2.009,0.786-2.511-0.177
		c-0.055-0.104-0.093-0.224-0.025-0.335c0.025-0.041,0.097-0.087,0.137-0.079c0.166,0.031,0.193,0.206,0.292,0.309
		c0.372,0.385,0.902,0.502,1.381,0.298c0.288-0.122,0.502-0.317,0.51-0.66c0.007-0.304-0.167-0.506-0.416-0.631
		c-0.21-0.104-0.444-0.16-0.666-0.244c-0.22-0.084-0.451-0.153-0.653-0.271c-0.388-0.226-0.619-0.564-0.541-1.03
		c0.074-0.444,0.333-0.754,0.777-0.881C26.586,172.894,26.762,172.868,26.877,172.844z"/>
	<path fill-rule="evenodd" fill="#6B6B6B" d="M172.503,174.952c0-0.592-0.005-1.184,0.003-1.775
		c0.002-0.155,0.218-0.235,0.322-0.101c0.158,0.206,0.267,0.207,0.493,0.084c0.683-0.371,1.321-0.308,1.806,0.132
		c0.07,0.063,0.075,0.158,0.007,0.229c-0.037,0.039-0.108,0.086-0.147,0.074c-0.141-0.04-0.279-0.093-0.409-0.16
		c-0.701-0.366-1.639,0.169-1.646,1.03c-0.002,0.236-0.008,0.474-0.009,0.71c-0.002,0.475,0.002,0.948-0.004,1.422
		c-0.002,0.172,0.022,0.368-0.2,0.438c-0.125,0.04-0.226-0.128-0.235-0.396c-0.007-0.177-0.003-0.355-0.003-0.532
		c0-0.386,0-0.771,0-1.155C172.488,174.952,172.495,174.952,172.503,174.952z"/>
	<path fill-rule="evenodd" fill="#6B6B6B" d="M67.942,175.029c0,0.531,0.004,1.063-0.003,1.593
		c-0.002,0.113-0.038,0.229-0.079,0.336c-0.011,0.03-0.092,0.04-0.142,0.049c-0.021,0.004-0.062-0.014-0.069-0.032
		c-0.033-0.079-0.081-0.162-0.081-0.244c-0.004-1.15-0.002-2.301,0.001-3.451c0-0.056,0.017-0.119,0.047-0.165
		c0.027-0.04,0.081-0.067,0.128-0.09c0.07-0.033,0.106,0,0.138,0.069c0.104,0.227,0.054,0.464,0.059,0.696
		c0.009,0.413,0.002,0.826,0.002,1.239C67.944,175.029,67.943,175.029,67.942,175.029z"/>
	<path fill-rule="evenodd" fill="#6B6B6B" d="M67.737,172.022c-0.135-0.025-0.177-0.124-0.159-0.247
		c0.012-0.087,0.065-0.16,0.167-0.162c0.137-0.003,0.217,0.085,0.216,0.206S67.88,172.024,67.737,172.022z"/>
	<path fill-rule="evenodd" fill="#B50074" d="M113.599,106.121c-0.259,0.292-0.6,0.467-0.931,0.658
		c-1.254,0.723-2.503,1.452-3.754,2.178c-0.97,0.563-1.942,1.122-2.911,1.688c-1.173,0.686-2.341,1.376-3.513,2.063
		c-0.534,0.313-1.071,0.622-1.607,0.936c-0.185,0.107-0.381,0.156-0.595,0.135c-0.604-0.164-1.102-0.542-1.634-0.843
		c-1.307-0.737-2.594-1.508-3.889-2.266c-1.143-0.669-2.284-1.34-3.428-2.007c-0.991-0.578-1.98-1.159-2.978-1.726
		c-0.483-0.273-0.915-0.66-1.504-0.713c0.005-0.074,0.01-0.147,0.015-0.222c0.172-0.038,0.364-0.041,0.513-0.122
		c0.493-0.266,0.97-0.561,1.454-0.843c0.866-0.505,1.732-1.01,2.6-1.513c0.969-0.563,1.938-1.124,2.908-1.687
		c1.25-0.725,2.511-1.43,3.745-2.182c0.727-0.443,1.537-0.754,2.176-1.34c0.063,0.003,0.126,0.006,0.189,0.009
		c0.37,0.239,0.729,0.493,1.11,0.713c1.658,0.959,3.325,1.905,4.984,2.864c1.812,1.048,3.628,2.089,5.422,3.167
		C112.523,105.401,113.133,105.653,113.599,106.121z"/>
	<path fill-rule="evenodd" fill="#F00680" d="M100.266,98.317c-0.639,0.586-1.449,0.897-2.176,1.34
		c-1.233,0.752-2.495,1.457-3.745,2.182c-0.969,0.563-1.939,1.124-2.908,1.687c-0.867,0.503-1.733,1.008-2.6,1.513
		c-0.484,0.282-0.961,0.577-1.454,0.843c-0.149,0.081-0.341,0.084-0.513,0.122c-0.236-0.12-0.477-0.23-0.706-0.362
		c-0.974-0.561-1.943-1.128-2.915-1.692c-0.229-0.133-0.445-0.295-0.717-0.337c-0.015-0.048-0.022-0.098-0.022-0.148
		c0.088-0.076,0.204-0.138,0.26-0.233c0.298-0.51,0.584-1.027,0.871-1.544c0.917-1.655,1.836-3.308,2.749-4.965
		c0.741-1.347,1.472-2.699,2.209-4.048c0.155-0.284,0.317-0.565,0.476-0.848c0.033,0,0.062,0.01,0.089,0.029
		c0.159,0.079,0.323,0.148,0.476,0.237c3.424,1.988,6.848,3.979,10.27,5.971C100.035,98.134,100.147,98.231,100.266,98.317z"/>
	<path fill-rule="evenodd" fill="#FFFFFF" d="M82.533,103.611c0.272,0.042,0.488,0.204,0.717,0.337
		c0.972,0.564,1.941,1.132,2.915,1.692c0.229,0.132,0.47,0.242,0.706,0.362c-0.005,0.074-0.01,0.147-0.015,0.222
		c-1.36,0.78-2.721,1.56-4.08,2.343c-1.358,0.784-2.713,1.572-4.06,2.354c-0.2-0.153-0.067-0.276-0.004-0.392
		c1.118-2.021,2.238-4.039,3.357-6.059C82.226,104.186,82.378,103.898,82.533,103.611z"/>
	<path fill-rule="evenodd" fill="#6C017B" d="M113.599,106.121c-0.466-0.468-1.075-0.72-1.627-1.051
		c-1.794-1.078-3.61-2.119-5.422-3.167c-1.659-0.959-3.326-1.905-4.984-2.864c-0.381-0.22-0.741-0.475-1.111-0.713
		c0.147-0.099,0.289-0.207,0.441-0.295c3.403-1.98,6.807-3.959,10.212-5.936c0.152-0.089,0.316-0.158,0.475-0.236
		c0.49,0.524,0.752,1.19,1.104,1.798c0.841,1.455,1.647,2.93,2.466,4.398c0.33,0.593,0.653,1.189,0.983,1.782
		c0.572,1.031,1.147,2.062,1.723,3.092c0.116,0.209,0.206,0.425,0.201,0.67c-1.155,0.681-2.312,1.357-3.463,2.045
		c-0.247,0.147-0.529,0.249-0.721,0.481C113.783,106.124,113.69,106.122,113.599,106.121z"/>
	<path fill-rule="evenodd" fill="#FFFFFF" d="M113.876,106.125c0.191-0.232,0.474-0.334,0.721-0.481
		c1.151-0.688,2.308-1.364,3.463-2.045c0.056,0.019,0.112,0.027,0.171,0.025c1.183,2.141,2.366,4.281,3.549,6.422
		c0.114,0.206,0.229,0.412,0.334,0.623c0.021,0.042,0.005,0.111-0.014,0.161c-0.023,0.067-0.078,0.071-0.146,0.033
		c-0.102-0.059-0.209-0.108-0.311-0.167c-2.472-1.437-4.943-2.872-7.414-4.312C114.104,106.312,113.993,106.213,113.876,106.125z"/>
	<path fill-rule="evenodd" fill="#FFFFFF" d="M111.583,91.858c-0.158,0.078-0.322,0.147-0.475,0.236
		c-3.405,1.977-6.81,3.955-10.212,5.936c-0.153,0.089-0.294,0.196-0.441,0.295c-0.063-0.003-0.126-0.006-0.189-0.009
		c-0.119-0.085-0.23-0.183-0.356-0.255c-3.422-1.993-6.845-3.983-10.27-5.971c-0.153-0.089-0.316-0.158-0.476-0.237
		c0.041-0.336,0.242-0.6,0.398-0.883c3.525-6.358,7.052-12.716,10.578-19.074c0.057-0.103,0.111-0.208,0.166-0.313
		c0.308,0.171,0.405,0.499,0.56,0.778c2.268,4.078,4.529,8.159,6.795,12.238c1.319,2.375,2.644,4.747,3.965,7.121
		C111.582,91.756,111.567,91.803,111.583,91.858z"/>
	<path fill-rule="evenodd" fill="#FFFFFF" d="M62.616,162.496c0.472,0,0.945-0.019,1.416,0.004c0.831,0.038,1.43,0.67,1.439,1.49
		c0.01,0.829-0.57,1.454-1.43,1.477c-0.973,0.026-1.947,0.011-2.92,0.002c-0.331-0.003-0.42-0.091-0.425-0.425
		c-0.011-0.737-0.006-1.475,0-2.212c0.001-0.205,0.114-0.33,0.327-0.331c0.531-0.004,1.062-0.002,1.593-0.002
		C62.616,162.498,62.616,162.497,62.616,162.496z"/>
	<path fill-rule="evenodd" fill="#FFFFFF" d="M62.426,158.035c0.443,0,0.888-0.022,1.33,0.005c0.684,0.041,1.175,0.522,1.236,1.17
		c0.056,0.587-0.332,1.162-0.933,1.352c-0.194,0.062-0.405,0.089-0.609,0.092c-0.739,0.011-1.479,0.011-2.218,0.002
		c-0.459-0.006-0.533-0.073-0.542-0.498c-0.011-0.562-0.009-1.124,0.001-1.686c0.007-0.383,0.065-0.432,0.491-0.44
		c0.414-0.009,0.828-0.002,1.242-0.002C62.426,158.031,62.426,158.033,62.426,158.035z"/>
	<path fill-rule="evenodd" fill="#FFFFFF" d="M83.417,159.833c0-0.504-0.008-1.008,0.003-1.511c0.006-0.288,0.094-0.38,0.368-0.393
		c0.355-0.016,0.71-0.01,1.066-0.01c0.474,0,0.949-0.018,1.421,0.01c0.687,0.04,1.262,0.311,1.632,0.921
		c0.706,1.164,0.041,2.705-1.308,2.86c-0.964,0.111-1.951,0.031-2.927,0.026c-0.176-0.001-0.25-0.146-0.252-0.306
		C83.414,160.899,83.418,160.366,83.417,159.833z"/>
	<path fill-rule="evenodd" fill="#FFFFFF" d="M110.174,162.925c-0.914,0.08-1.76,0.05-2.604,0.021
		c-0.13-0.004-0.193-0.111-0.175-0.248c0.004-0.029,0.006-0.06,0.016-0.087c0.063-0.164,0.124-0.329,0.192-0.492
		c0.359-0.863,0.722-1.727,1.092-2.611C109.069,159.973,109.737,161.518,110.174,162.925z"/>
	<path fill-rule="evenodd" fill="#FFFFFF" d="M153.244,176.756c-0.951-0.016-1.694-0.827-1.659-1.812
		c0.032-0.932,0.802-1.675,1.722-1.664c0.952,0.011,1.737,0.819,1.72,1.771C155.008,176.013,154.214,176.771,153.244,176.756z"/>
	<path fill-rule="evenodd" fill="#FFFFFF" d="M132.145,174.749c-0.473,0-0.944,0.004-1.417-0.002
		c-0.16-0.002-0.247-0.159-0.181-0.313c0.291-0.678,0.774-1.105,1.539-1.145c0.754-0.04,1.364,0.34,1.695,1.044
		c0.121,0.257,0.046,0.411-0.22,0.417c-0.473,0.009-0.945,0.002-1.417,0.002C132.145,174.751,132.145,174.75,132.145,174.749z"/>
</g>
</svg>
